<?xml version="1.0" encoding="utf-8"?>
<svg width="27.999878px" height="27.999817px" viewBox="0 0 27.999878 27.999817" version="1.1" xmlns:xlink="http://www.w3.org/1999/xlink" xmlns="http://www.w3.org/2000/svg">
  <g id="Gear-fill">
    <path d="M0 0L27.9998 0L27.9998 27.9998L0 27.9998L0 0Z" id="Rectangle" fill="none" fill-rule="evenodd" stroke="none" />
    <path d="M10.7916 25.6666L10.3249 21.9333C10.0722 21.8361 9.16876 21.3013 8.9541 21.1458L5.48326 22.6041L2.27493 17.0625L5.2791 14.7875C5.25965 14.6513 5.25965 13.3486 5.2791 13.2125L2.27493 10.9375L5.48326 5.39579L8.95409 6.85412C9.16798 6.69856 10.0916 6.16384 10.3249 6.06662L10.7916 2.33328L17.2083 2.33328L17.6749 6.06662C17.9277 6.16384 18.8326 6.69856 19.0458 6.85412L22.5166 5.39579L25.7249 10.9375L22.7207 13.2125C22.7402 13.3486 22.7305 14.6513 22.6916 14.7875L25.6958 17.0625L22.4874 22.6041L19.0458 21.1458C18.8319 21.3013 17.9083 21.8361 17.6749 21.9333L17.2083 25.6666L10.7916 25.6666ZM14.0582 18.0832C15.186 18.0832 16.1485 17.6846 16.9457 16.8874C17.743 16.0902 18.1416 15.1277 18.1416 13.9999C18.1416 12.8721 17.743 11.9096 16.9457 11.1124C16.1485 10.3152 15.186 9.91658 14.0582 9.91658C12.911 9.91658 11.9435 10.3152 11.1556 11.1124C10.3677 11.9096 9.97414 12.8721 9.97492 13.9999C9.97569 15.1277 10.3696 16.0902 11.1567 16.8874C11.9439 17.6846 12.911 18.0833 14.0582 18.0832" id="Shape" fill="#535353" fill-rule="evenodd" stroke="none" />
  </g>
</svg>