<?xml version="1.0" encoding="utf-8"?>
<svg width="28px" height="28px" viewBox="0 0 28 28" version="1.1" xmlns:xlink="http://www.w3.org/1999/xlink" xmlns="http://www.w3.org/2000/svg">
  <g id="Songs-Icon">
    <path d="M0 0L28 0L28 28L0 28L0 0Z" id="Rectangle" fill="none" fill-rule="evenodd" stroke="none" />
    <path d="M11.4995 5.25L11.4995 8.25L23.4995 8.25L23.4995 5.25L11.4995 5.25ZM11.4995 12.2499L11.4995 15.2499L23.4995 15.2499L23.4995 12.2499L11.4995 12.2499ZM11.4995 19.2499L11.4995 22.2499L23.4995 22.2499L23.4995 19.2499L11.4995 19.2499ZM4.49951 5.25L7.49951 5.25L7.49951 8.25L4.49951 8.25L4.49951 5.25ZM4.49951 12.2499L7.49951 12.2499L7.49951 15.2499L4.49951 15.2499L4.49951 12.2499ZM4.49951 19.2499L7.49951 19.2499L7.49951 22.2499L4.49951 22.2499L4.49951 19.2499Z" id="Shape" fill="#535353" fill-rule="evenodd" stroke="none" />
  </g>
</svg>