<?xml version="1.0" encoding="utf-8"?>
<svg width="28px" height="28px" viewBox="0 0 28 28" version="1.1" xmlns:xlink="http://www.w3.org/1999/xlink" xmlns="http://www.w3.org/2000/svg">
  <g id="Fill">
    <path d="M0 0L28 0L28 28L0 28L0 0Z" id="Shape" fill="none" fill-rule="evenodd" stroke="none" />
    <path d="M12.25 2.33319C16.0492 2.33294 19.5147 4.50335 21.1729 7.92163C22.8311 11.3399 22.3906 15.4051 20.0386 18.3889L24.2993 22.6495C24.7414 23.1073 24.7351 23.8349 24.2851 24.285C23.8351 24.735 23.1074 24.7413 22.6496 24.2992L18.389 20.0385C14.9773 22.7272 10.213 22.8826 6.63334 20.422C3.05372 17.9614 1.4921 13.4576 2.78018 9.30921C4.06826 5.16083 7.9062 2.33356 12.25 2.33319M12.2499 4.66638C8.06177 4.66638 4.6666 8.06156 4.6666 12.2497C4.6666 16.4379 8.06177 19.833 12.2499 19.833C16.4381 19.833 19.8333 16.4379 19.8333 12.2497C19.8333 8.06156 16.4381 4.66638 12.2499 4.66638M12.2499 5.83319C15.7937 5.83319 18.6665 8.70603 18.6665 12.2499C18.6665 15.7937 15.7937 18.6665 12.2499 18.6665C8.70603 18.6665 5.83319 15.7937 5.83319 12.2499C5.83319 8.70603 8.70603 5.83319 12.2499 5.83319" id="Shape" fill="#535353" fill-rule="evenodd" stroke="none" />
  </g>
</svg>