<?xml version="1.0" encoding="utf-8"?>
<svg width="27.999878px" height="27.999817px" viewBox="0 0 27.999878 27.999817" version="1.1" xmlns:xlink="http://www.w3.org/1999/xlink" xmlns="http://www.w3.org/2000/svg">
  <g id="Gear-outline">
    <path d="M0 0L27.9998 0L27.9998 27.9998L0 27.9998L0 0Z" id="Rectangle" fill="none" fill-rule="evenodd" stroke="none" />
    <path d="M10.4979 13.9999C10.4979 12.067 12.0649 10.4999 13.9979 10.4999C15.9308 10.4999 17.4979 12.067 17.4979 13.9999C17.4979 15.9329 15.9308 17.4999 13.9979 17.4999C12.0649 17.4999 10.4979 15.9329 10.4979 13.9999ZM10.791 25.6665L10.3244 21.9333C10.0716 21.836 9.16818 21.3013 8.95352 21.1458L5.48273 22.6041L2.27438 17.0625L5.27856 14.7874C5.25912 14.6513 5.25912 13.3485 5.27856 13.2125L2.27438 10.9374L5.48273 5.39579L8.95352 6.85412C9.16739 6.69856 10.091 6.16384 10.3244 6.06662L10.791 2.33328L17.2077 2.33328L17.6744 6.06662C17.9272 6.16384 18.8321 6.69856 19.0453 6.85412L22.516 5.39579L25.7242 10.9374L22.7202 13.2125C22.7397 13.3485 22.7299 14.6513 22.691 14.7874L25.6952 17.0625L22.4869 22.6041L19.0453 21.1458C18.8313 21.3013 17.9077 21.836 17.6744 21.9333L17.2077 25.6665L10.791 25.6665Z" id="Oval-Union" fill="none" fill-rule="evenodd" stroke="#535353" stroke-width="2" />
  </g>
</svg>