<?xml version="1.0" encoding="utf-8"?>
<svg width="27.999817px" height="27.999573px" viewBox="0 0 27.999817 27.999573" version="1.1" xmlns:xlink="http://www.w3.org/1999/xlink" xmlns="http://www.w3.org/2000/svg">
  <g id="Outline">
    <path d="M0 0L27.9998 0L27.9998 27.9996L0 27.9996L0 0Z" id="Shape-2" fill="none" fill-rule="evenodd" stroke="none" />
    <path d="M12.25 2.33371C7.90621 2.33408 4.06826 5.16134 2.78018 9.30973C1.4921 13.4581 3.05372 17.962 6.63335 20.4226C10.213 22.8831 14.9773 22.7277 18.389 20.039L22.6496 24.2997C23.1074 24.7418 23.8351 24.7355 24.2851 24.2855C24.7351 23.8355 24.7414 23.1078 24.2993 22.65L20.0386 18.3894C22.3906 15.4057 22.8311 11.3404 21.1729 7.92215C19.5147 4.50387 16.0492 2.33346 12.25 2.33371M4.6666 12.2507C4.6666 8.0625 8.06177 4.66733 12.2499 4.66733C16.4381 4.66733 19.8333 8.06251 19.8333 12.2507C19.8333 16.4388 16.4381 19.834 12.2499 19.834C8.06177 19.834 4.6666 16.4388 4.6666 12.2507" id="Shape" fill="#535353" fill-rule="evenodd" stroke="none" />
  </g>
</svg>